<svg xmlns="http://www.w3.org/2000/svg" xmlns:xlink="http://www.w3.org/1999/xlink" width="500" zoomAndPan="magnify" viewBox="0 0 375 374.999991" height="500" preserveAspectRatio="xMidYMid meet" version="1.0"><defs><g/><clipPath id="id1"><path d="M 43.601562 136.625 L 71 136.625 L 71 225.125 L 43.601562 225.125 Z M 43.601562 136.625 " clip-rule="nonzero"/></clipPath><clipPath id="id2"><path d="M 311 136.625 L 337.460938 136.625 L 337.460938 225.125 L 311 225.125 Z M 311 136.625 " clip-rule="nonzero"/></clipPath></defs><g fill="#5285f5" fill-opacity="1"><g transform="translate(122.630904, 226.548379)"><g><path d="M 2.710938 0 L 26.832031 0 C 41.359375 0 49.433594 -6.882812 49.433594 -19.1875 C 49.433594 -31.546875 41.359375 -38.429688 26.832031 -38.429688 L 2.710938 -38.429688 Z M 10.136719 -5.691406 L 10.136719 -32.632812 L 26.179688 -32.632812 C 36.371094 -32.632812 42.0625 -27.859375 42.0625 -19.1875 C 42.0625 -10.515625 36.371094 -5.691406 26.179688 -5.691406 Z M 10.136719 -5.691406 "/></g></g></g><g fill="#5285f5" fill-opacity="1"><g transform="translate(174.122697, 226.548379)"><g><path d="M 2.710938 0 L 41.464844 0 L 41.464844 -5.476562 L 10.027344 -5.476562 L 10.027344 -17.238281 L 38.757812 -17.238281 L 38.757812 -22.277344 L 10.027344 -22.277344 L 10.027344 -32.902344 L 40.925781 -32.902344 L 40.925781 -38.429688 L 2.710938 -38.429688 Z M 2.710938 0 "/></g></g></g><g fill="#5285f5" fill-opacity="1"><g transform="translate(216.671179, 226.548379)"><g><path d="M 19.894531 0 L 28.292969 0 L 48.242188 -38.429688 L 40.164062 -38.429688 L 24.175781 -7.046875 L 24.066406 -7.046875 L 8.023438 -38.429688 L 0 -38.429688 Z M 19.894531 0 "/></g></g></g><g fill="#0e073f" fill-opacity="1"><g transform="translate(72.010304, 175.212792)"><g><path d="M 27.421875 -6.921875 L 12.359375 -6.921875 L 9.5625 0 L -0.71875 0 L 15.015625 -35.609375 L 24.921875 -35.609375 L 40.703125 0 L 30.21875 0 Z M 24.46875 -14.34375 L 19.890625 -25.75 L 15.3125 -14.34375 Z M 24.46875 -14.34375 "/></g></g></g><g fill="#0e073f" fill-opacity="1"><g transform="translate(107.359151, 175.212792)"><g><path d="M 3.109375 -37.75 L 12.765625 -37.75 L 12.765625 0 L 3.109375 0 Z M 3.109375 -37.75 "/></g></g></g><g fill="#0e073f" fill-opacity="1"><g transform="translate(118.649907, 175.212792)"><g><path d="M 31.28125 -13.734375 C 31.28125 -13.671875 31.234375 -12.875 31.140625 -11.34375 L 11.09375 -11.34375 C 11.5 -9.914062 12.285156 -8.820312 13.453125 -8.0625 C 14.628906 -7.300781 16.097656 -6.921875 17.859375 -6.921875 C 19.179688 -6.921875 20.320312 -7.101562 21.28125 -7.46875 C 22.25 -7.84375 23.226562 -8.457031 24.21875 -9.3125 L 29.296875 -4.015625 C 26.617188 -1.035156 22.703125 0.453125 17.546875 0.453125 C 14.328125 0.453125 11.492188 -0.15625 9.046875 -1.375 C 6.609375 -2.59375 4.71875 -4.285156 3.375 -6.453125 C 2.039062 -8.628906 1.375 -11.09375 1.375 -13.84375 C 1.375 -16.550781 2.023438 -18.984375 3.328125 -21.140625 C 4.640625 -23.296875 6.445312 -24.984375 8.75 -26.203125 C 11.050781 -27.421875 13.644531 -28.03125 16.53125 -28.03125 C 19.28125 -28.03125 21.773438 -27.460938 24.015625 -26.328125 C 26.253906 -25.191406 28.023438 -23.546875 29.328125 -21.390625 C 30.628906 -19.234375 31.28125 -16.679688 31.28125 -13.734375 Z M 16.578125 -21.15625 C 15.085938 -21.15625 13.84375 -20.734375 12.84375 -19.890625 C 11.84375 -19.046875 11.207031 -17.894531 10.9375 -16.4375 L 22.234375 -16.4375 C 21.960938 -17.894531 21.328125 -19.046875 20.328125 -19.890625 C 19.328125 -20.734375 18.078125 -21.15625 16.578125 -21.15625 Z M 16.578125 -21.15625 "/></g></g></g><g fill="#0e073f" fill-opacity="1"><g transform="translate(146.674519, 175.212792)"><g><path d="M 20.609375 0 L 15.671875 -7.21875 L 10.375 0 L -0.109375 0 L 10.375 -13.78125 L 0.203125 -27.578125 L 11.09375 -27.578125 L 15.96875 -20.609375 L 21.0625 -27.578125 L 31.28125 -27.578125 L 21.109375 -14.140625 L 31.640625 0 Z M 20.609375 0 "/></g></g></g><g fill="#0e073f" fill-opacity="1"><g transform="translate(173.529278, 175.212792)"><g><path d="M 14.859375 -28.03125 C 19.429688 -28.03125 22.921875 -26.988281 25.328125 -24.90625 C 27.742188 -22.820312 28.953125 -19.625 28.953125 -15.3125 L 28.953125 0 L 19.9375 0 L 19.9375 -3.5625 C 18.550781 -0.882812 15.835938 0.453125 11.796875 0.453125 C 9.660156 0.453125 7.8125 0.0820312 6.25 -0.65625 C 4.695312 -1.40625 3.519531 -2.414062 2.71875 -3.6875 C 1.925781 -4.957031 1.53125 -6.40625 1.53125 -8.03125 C 1.53125 -10.644531 2.53125 -12.671875 4.53125 -14.109375 C 6.53125 -15.554688 9.613281 -16.28125 13.78125 -16.28125 L 19.28125 -16.28125 C 19.113281 -19.195312 17.164062 -20.65625 13.4375 -20.65625 C 12.113281 -20.65625 10.769531 -20.441406 9.40625 -20.015625 C 8.050781 -19.597656 6.898438 -19.015625 5.953125 -18.265625 L 2.703125 -24.828125 C 4.222656 -25.847656 6.078125 -26.632812 8.265625 -27.1875 C 10.453125 -27.75 12.648438 -28.03125 14.859375 -28.03125 Z M 14.5 -5.640625 C 15.613281 -5.640625 16.59375 -5.910156 17.4375 -6.453125 C 18.289062 -7.003906 18.90625 -7.804688 19.28125 -8.859375 L 19.28125 -11.25 L 15.109375 -11.25 C 12.296875 -11.25 10.890625 -10.3125 10.890625 -8.4375 C 10.890625 -7.59375 11.210938 -6.914062 11.859375 -6.40625 C 12.503906 -5.894531 13.382812 -5.640625 14.5 -5.640625 Z M 14.5 -5.640625 "/></g></g></g><g fill="#0e073f" fill-opacity="1"><g transform="translate(200.841803, 175.212792)"><g><path d="M 21.0625 -28.03125 C 24.488281 -28.03125 27.242188 -27.007812 29.328125 -24.96875 C 31.410156 -22.9375 32.453125 -19.867188 32.453125 -15.765625 L 32.453125 0 L 22.796875 0 L 22.796875 -14.1875 C 22.796875 -17.957031 21.285156 -19.84375 18.265625 -19.84375 C 16.597656 -19.84375 15.265625 -19.296875 14.265625 -18.203125 C 13.265625 -17.117188 12.765625 -15.492188 12.765625 -13.328125 L 12.765625 0 L 3.109375 0 L 3.109375 -27.578125 L 12.3125 -27.578125 L 12.3125 -24.578125 C 13.394531 -25.691406 14.679688 -26.546875 16.171875 -27.140625 C 17.671875 -27.734375 19.300781 -28.03125 21.0625 -28.03125 Z M 21.0625 -28.03125 "/></g></g></g><g fill="#0e073f" fill-opacity="1"><g transform="translate(231.612996, 175.212792)"><g><path d="M 32.40625 -37.75 L 32.40625 0 L 23.203125 0 L 23.203125 -2.75 C 21.398438 -0.613281 18.703125 0.453125 15.109375 0.453125 C 12.597656 0.453125 10.304688 -0.128906 8.234375 -1.296875 C 6.171875 -2.460938 4.535156 -4.128906 3.328125 -6.296875 C 2.128906 -8.472656 1.53125 -10.988281 1.53125 -13.84375 C 1.53125 -16.6875 2.128906 -19.1875 3.328125 -21.34375 C 4.535156 -23.5 6.171875 -25.148438 8.234375 -26.296875 C 10.304688 -27.453125 12.597656 -28.03125 15.109375 -28.03125 C 18.398438 -28.03125 20.941406 -27.082031 22.734375 -25.1875 L 22.734375 -37.75 Z M 17.140625 -7.21875 C 18.804688 -7.21875 20.179688 -7.800781 21.265625 -8.96875 C 22.347656 -10.144531 22.890625 -11.769531 22.890625 -13.84375 C 22.890625 -15.875 22.351562 -17.460938 21.28125 -18.609375 C 20.21875 -19.765625 18.835938 -20.34375 17.140625 -20.34375 C 15.441406 -20.34375 14.050781 -19.765625 12.96875 -18.609375 C 11.882812 -17.460938 11.34375 -15.875 11.34375 -13.84375 C 11.34375 -11.769531 11.882812 -10.144531 12.96875 -8.96875 C 14.050781 -7.800781 15.441406 -7.21875 17.140625 -7.21875 Z M 17.140625 -7.21875 "/></g></g></g><g fill="#0e073f" fill-opacity="1"><g transform="translate(262.485918, 175.212792)"><g><path d="M 12.3125 -24.265625 C 13.289062 -25.523438 14.566406 -26.46875 16.140625 -27.09375 C 17.722656 -27.71875 19.535156 -28.03125 21.578125 -28.03125 L 21.578125 -19.328125 C 20.691406 -19.429688 19.960938 -19.484375 19.390625 -19.484375 C 17.316406 -19.484375 15.691406 -18.921875 14.515625 -17.796875 C 13.347656 -16.679688 12.765625 -14.972656 12.765625 -12.671875 L 12.765625 0 L 3.109375 0 L 3.109375 -27.578125 L 12.3125 -27.578125 Z M 12.3125 -24.265625 "/></g></g></g><g fill="#0e073f" fill-opacity="1"><g transform="translate(280.388834, 175.212792)"><g><path d="M 31.28125 -13.734375 C 31.28125 -13.671875 31.234375 -12.875 31.140625 -11.34375 L 11.09375 -11.34375 C 11.5 -9.914062 12.285156 -8.820312 13.453125 -8.0625 C 14.628906 -7.300781 16.097656 -6.921875 17.859375 -6.921875 C 19.179688 -6.921875 20.320312 -7.101562 21.28125 -7.46875 C 22.25 -7.84375 23.226562 -8.457031 24.21875 -9.3125 L 29.296875 -4.015625 C 26.617188 -1.035156 22.703125 0.453125 17.546875 0.453125 C 14.328125 0.453125 11.492188 -0.15625 9.046875 -1.375 C 6.609375 -2.59375 4.71875 -4.285156 3.375 -6.453125 C 2.039062 -8.628906 1.375 -11.09375 1.375 -13.84375 C 1.375 -16.550781 2.023438 -18.984375 3.328125 -21.140625 C 4.640625 -23.296875 6.445312 -24.984375 8.75 -26.203125 C 11.050781 -27.421875 13.644531 -28.03125 16.53125 -28.03125 C 19.28125 -28.03125 21.773438 -27.460938 24.015625 -26.328125 C 26.253906 -25.191406 28.023438 -23.546875 29.328125 -21.390625 C 30.628906 -19.234375 31.28125 -16.679688 31.28125 -13.734375 Z M 16.578125 -21.15625 C 15.085938 -21.15625 13.84375 -20.734375 12.84375 -19.890625 C 11.84375 -19.046875 11.207031 -17.894531 10.9375 -16.4375 L 22.234375 -16.4375 C 21.960938 -17.894531 21.328125 -19.046875 20.328125 -19.890625 C 19.328125 -20.734375 18.078125 -21.15625 16.578125 -21.15625 Z M 16.578125 -21.15625 "/></g></g></g><g clip-path="url(#id1)"><path fill="#5285f5" d="M 68.246094 146.457031 L 70.710938 146.457031 L 70.710938 136.625 L 68.246094 136.625 C 60.085938 136.625 53.46875 143.226562 53.46875 151.375 L 53.46875 168.582031 C 53.46875 170.128906 52.738281 171.585938 51.5 172.515625 L 45.589844 176.941406 C 44.40625 177.828125 43.683594 179.195312 43.621094 180.671875 C 43.558594 182.144531 44.167969 183.570312 45.269531 184.550781 L 51.816406 190.355469 C 52.867188 191.289062 53.46875 192.625 53.46875 194.03125 L 53.46875 210.375 C 53.46875 218.519531 60.085938 225.125 68.246094 225.125 L 70.710938 225.125 L 70.710938 215.292969 L 68.246094 215.292969 C 65.527344 215.292969 63.320312 213.089844 63.320312 210.375 L 63.320312 194.03125 C 63.320312 189.816406 61.515625 185.804688 58.359375 183.003906 L 56.324219 181.195312 L 57.410156 180.382812 C 61.132812 177.597656 63.320312 173.226562 63.320312 168.582031 L 63.320312 151.375 C 63.320312 148.660156 65.527344 146.457031 68.246094 146.457031 Z M 68.246094 146.457031 " fill-opacity="1" fill-rule="evenodd"/></g><g clip-path="url(#id2)"><path fill="#5285f5" d="M 313.679688 146.457031 L 311.21875 146.457031 L 311.21875 136.625 L 313.679688 136.625 C 321.84375 136.625 328.457031 143.226562 328.457031 151.375 L 328.457031 168.582031 C 328.457031 170.128906 329.1875 171.585938 330.429688 172.515625 L 336.339844 176.941406 C 337.523438 177.828125 338.246094 179.195312 338.304688 180.671875 C 338.367188 182.144531 337.761719 183.570312 336.65625 184.550781 L 330.113281 190.355469 C 329.058594 191.289062 328.457031 192.625 328.457031 194.03125 L 328.457031 210.375 C 328.457031 218.519531 321.84375 225.125 313.679688 225.125 L 311.21875 225.125 L 311.21875 215.292969 L 313.679688 215.292969 C 316.402344 215.292969 318.605469 213.089844 318.605469 210.375 L 318.605469 194.03125 C 318.605469 189.816406 320.410156 185.804688 323.566406 183.003906 L 325.605469 181.195312 L 324.515625 180.382812 C 320.796875 177.597656 318.605469 173.226562 318.605469 168.582031 L 318.605469 151.375 C 318.605469 148.660156 316.402344 146.457031 313.679688 146.457031 Z M 313.679688 146.457031 " fill-opacity="1" fill-rule="evenodd"/></g></svg>